<svg version="1.1" viewBox="0.0 0.0 960.0 720.0" fill="none" stroke="none" stroke-linecap="square" stroke-miterlimit="10" xmlns:xlink="http://www.w3.org/1999/xlink" xmlns="http://www.w3.org/2000/svg"><clipPath id="p.0"><path d="m0 0l960.0 0l0 720.0l-960.0 0l0 -720.0z" clip-rule="nonzero"/></clipPath><g clip-path="url(#p.0)"><path fill="#000000" fill-opacity="0.0" d="m0 0l960.0 0l0 720.0l-960.0 0z" fill-rule="evenodd"/><g filter="url(#shadowFilter-p.1)"><use xlink:href="#p.1" transform="matrix(1.0 0.0 0.0 1.0 0.0 2.0)"/></g><defs><filter id="shadowFilter-p.1" filterUnits="userSpaceOnUse"><feGaussianBlur in="SourceAlpha" stdDeviation="2.0" result="blur"/><feComponentTransfer in="blur" color-interpolation-filters="sRGB"><feFuncR type="linear" slope="0" intercept="0.0"/><feFuncG type="linear" slope="0" intercept="0.0"/><feFuncB type="linear" slope="0" intercept="0.0"/><feFuncA type="linear" slope="0.5" intercept="0"/></feComponentTransfer></filter></defs><g id="p.1"><path fill="#212121" d="m0 327.99475l0 0c0 -132.09607 106.45047 -239.18109 237.76378 -239.18109l0 0c63.058884 0 123.53502 25.199364 168.12437 70.05451c44.589355 44.855164 69.639404 105.6918 69.639404 169.12659l0 0c0 132.09607 -106.45047 239.18109 -237.76378 239.18109l0 0c-131.31331 0 -237.76378 -107.08502 -237.76378 -239.18109z" fill-rule="evenodd"/></g><path fill="#ffffff" d="m199.1179 196.53314l0 0c0 -21.7435 17.626587 -39.370087 39.37007 -39.370087l0 0l0 0c10.441605 0 20.455536 4.1479187 27.838867 11.531235c7.383301 7.383316 11.5312195 17.397263 11.5312195 27.838852l0 144.15747c0 21.7435 -17.626587 39.370087 -39.370087 39.370087l0 0l0 0c-21.743484 0 -39.37007 -17.626587 -39.37007 -39.370087z" fill-rule="evenodd"/><path stroke="#ffffff" stroke-width="1.0" stroke-linejoin="round" stroke-linecap="butt" d="m199.1179 196.53314l0 0c0 -21.7435 17.626587 -39.370087 39.37007 -39.370087l0 0l0 0c10.441605 0 20.455536 4.1479187 27.838867 11.531235c7.383301 7.383316 11.5312195 17.397263 11.5312195 27.838852l0 144.15747c0 21.7435 -17.626587 39.370087 -39.370087 39.370087l0 0l0 0c-21.743484 0 -39.37007 -17.626587 -39.37007 -39.370087z" fill-rule="evenodd"/><path fill="#000000" fill-opacity="0.0" d="m154.12376 338.7367l0 0" fill-rule="evenodd"/><path stroke="#000000" stroke-width="1.0" stroke-linejoin="round" stroke-linecap="butt" d="m154.12376 338.7367l0 0" fill-rule="evenodd"/><path fill="#ffffff" d="m229.22888 416.97l0 0c0 -5.1140747 4.145767 -9.259857 9.259842 -9.259857l0 0l0 0c2.4558563 0 4.811142 0.97558594 6.547699 2.7121582c1.736557 1.7365417 2.712143 4.0918274 2.712143 6.547699l0 66.078735c0 5.1140747 -4.145767 9.259827 -9.259842 9.259827l0 0l0 0c-5.1140747 0 -9.259842 -4.145752 -9.259842 -9.259827z" fill-rule="evenodd"/><path stroke="#ffffff" stroke-width="1.0" stroke-linejoin="round" stroke-linecap="butt" d="m229.22888 416.97l0 0c0 -5.1140747 4.145767 -9.259857 9.259842 -9.259857l0 0l0 0c2.4558563 0 4.811142 0.97558594 6.547699 2.7121582c1.736557 1.7365417 2.712143 4.0918274 2.712143 6.547699l0 66.078735c0 5.1140747 -4.145767 9.259827 -9.259842 9.259827l0 0l0 0c-5.1140747 0 -9.259842 -4.145752 -9.259842 -9.259827z" fill-rule="evenodd"/><path fill="#ffffff" d="m313.47464 338.74707l0 0c0 48.218384 -33.575104 87.3071 -74.99213 87.3071c-41.417007 0 -74.99213 -39.088715 -74.99213 -87.3071l0 0c11.206451 37.035706 41.264282 61.809937 74.99213 61.809937c33.727844 0 63.785675 -24.774231 74.99213 -61.809937z" fill-rule="evenodd"/><path stroke="#ffffff" stroke-width="1.0" stroke-linejoin="round" stroke-linecap="butt" d="m313.47464 338.74707l0 0c0 48.218384 -33.575104 87.3071 -74.99213 87.3071c-41.417007 0 -74.99213 -39.088715 -74.99213 -87.3071l0 0c11.206451 37.035706 41.264282 61.809937 74.99213 61.809937c33.727844 0 63.785675 -24.774231 74.99213 -61.809937z" fill-rule="evenodd"/></g></svg>